<svg xmlns="http://www.w3.org/2000/svg" width="271.023" height="64.66"><g style="line-height:125%;-inkscape-font-specification:Lucida Sans" font-size="56" letter-spacing="0" word-spacing="0" font-family="Lucida Sans" transform="translate(-15.688 -44.541)"><path d="M53.473 92.306c-3.536 1.021-6.125 1.622-7.766 1.805-1.622.201-3.309.301-5.059.301-4.849 0-8.668-.875-11.457-2.625-2.771-1.75-4.885-4.275-6.344-7.574-1.44-3.299-2.16-6.982-2.16-11.047 0-6.216 1.641-11.311 4.922-15.285 3.299-3.974 8.312-5.961 15.039-5.961 4.065 0 8.322.611 12.77 1.832v5.305c-4.102-1.404-6.927-2.224-8.477-2.461-1.531-.255-2.98-.383-4.348-.383-4.867 0-8.385 1.659-10.555 4.977-2.169 3.3-3.254 7.301-3.254 12.004 0 2.917.456 5.642 1.367 8.176.93 2.516 2.479 4.603 4.648 6.262 2.169 1.659 5.086 2.488 8.75 2.488.93 0 1.805-.046 2.625-.137.82-.109 2.014-.401 3.582-.875v-13.18h5.715v16.379"/><path d="M85.465 92.443c-3.609 1.094-6.699 1.641-9.27 1.641-4.612 0-8.24-1.549-10.883-4.648-2.643-3.117-3.965-6.79-3.965-11.02 0-2.789.583-5.441 1.75-7.957s2.689-4.384 4.566-5.605c1.896-1.221 4.12-1.832 6.672-1.832 3.427 0 6.161 1.23 8.203 3.691s3.062 6.143 3.063 11.047l-.027 1.641h-18.73c.292 2.625.857 4.648 1.695 6.07.839 1.422 1.951 2.534 3.336 3.336 1.404.784 3.181 1.176 5.332 1.176 1.094 0 2.178-.091 3.254-.273 1.094-.201 2.762-.711 5.004-1.531v4.266m-18.375-17.09h13.098c0-2.971-.583-5.095-1.75-6.371-1.148-1.276-2.625-1.914-4.43-1.914-2.06 0-3.673.693-4.84 2.078-1.148 1.367-1.841 3.436-2.078 6.207"/><path d="M98.645 93.4l-8.504-29.695h5.277l6.508 22.996 7.027-22.996h5.387l6.152 22.996 7.465-22.996h4.621l-9.68 29.695h-5.414l-6.289-22.996-7.109 22.996h-5.441"/><path d="M160.059 92.443c-3.609 1.094-6.699 1.641-9.27 1.641-4.612 0-8.24-1.549-10.883-4.648-2.643-3.117-3.965-6.79-3.965-11.02 0-2.789.583-5.441 1.75-7.957s2.689-4.384 4.566-5.605c1.896-1.221 4.12-1.832 6.672-1.832 3.427 0 6.161 1.23 8.203 3.691s3.062 6.143 3.063 11.047l-.027 1.641h-18.73c.292 2.625.857 4.648 1.695 6.07.839 1.422 1.951 2.534 3.336 3.336 1.404.784 3.181 1.176 5.332 1.176 1.094 0 2.178-.091 3.254-.273 1.094-.201 2.762-.711 5.004-1.531v4.266m-18.375-17.09h13.098c0-2.971-.583-5.095-1.75-6.371-1.148-1.276-2.625-1.914-4.43-1.914-2.06 0-3.673.693-4.84 2.078-1.148 1.367-1.841 3.436-2.078 6.207"/><path d="M170.805 93.4v-25.648h-4.211v-4.047h4.211v-3.555c0-2.443.31-4.357.93-5.742.638-1.404 1.668-2.561 3.09-3.473 1.44-.93 3.318-1.394 5.633-1.395 1.823 0 3.883.301 6.18.902v4.266c-2.425-.747-4.366-1.121-5.824-1.121-.839 0-1.604.137-2.297.41-.693.255-1.249.72-1.668 1.395-.419.675-.629 2.069-.629 4.184v4.129h7.41v4.047h-7.41v25.648h-5.414"/><path d="M202.168 94.084c-2.826 0-5.286-.574-7.383-1.723-2.078-1.167-3.728-2.99-4.949-5.469-1.221-2.497-1.832-5.277-1.832-8.34 0-2.88.556-5.551 1.668-8.012 1.112-2.479 2.725-4.348 4.84-5.605 2.133-1.258 4.685-1.887 7.656-1.887 2.825 0 5.286.574 7.383 1.723 2.096 1.148 3.746 2.971 4.949 5.469 1.221 2.497 1.832 5.268 1.832 8.313 0 2.917-.565 5.615-1.695 8.094-1.13 2.461-2.753 4.32-4.867 5.578-2.096 1.24-4.63 1.859-7.602 1.859m0-4.047c2.68 0 4.758-.993 6.234-2.98 1.477-2.005 2.215-4.84 2.215-8.504 0-3.682-.747-6.508-2.242-8.477-1.477-1.987-3.546-2.98-6.207-2.98s-4.73.994-6.207 2.98c-1.477 1.969-2.215 4.794-2.215 8.477 0 3.664.738 6.499 2.215 8.504 1.477 1.987 3.546 2.98 6.207 2.98"/><path d="M224.699 104.201v-40.496h5.387v5.578c1.112-2.078 2.488-3.637 4.129-4.676 1.659-1.039 3.591-1.559 5.797-1.559 3.664 0 6.499 1.349 8.504 4.047 2.005 2.698 3.008 6.216 3.008 10.555 0 2.826-.465 5.514-1.395 8.066-.93 2.552-2.379 4.585-4.348 6.098-1.951 1.513-4.165 2.27-6.645 2.27-.984 0-2.288-.146-3.91-.438-1.604-.292-3.318-1.495-5.141-3.609v14.164h-5.387m5.387-17.883c1.841 1.641 3.309 2.671 4.402 3.09 1.094.419 2.27.629 3.527.629 2.643 0 4.594-1.112 5.852-3.336 1.276-2.224 1.914-5.059 1.914-8.504 0-3.208-.565-5.751-1.695-7.629-1.112-1.878-2.844-2.816-5.195-2.816-1.495 0-2.98.41-4.457 1.23-1.458.802-2.908 2.023-4.348 3.664v13.672"/><path d="M281.574 92.443c-3.609 1.094-6.699 1.641-9.27 1.641-4.612 0-8.24-1.549-10.883-4.648-2.643-3.117-3.965-6.79-3.965-11.02 0-2.789.583-5.441 1.75-7.957s2.689-4.384 4.566-5.605c1.896-1.221 4.12-1.832 6.672-1.832 3.427 0 6.161 1.23 8.203 3.691s3.062 6.143 3.063 11.047l-.027 1.641h-18.73c.292 2.625.857 4.648 1.695 6.07.839 1.422 1.951 2.534 3.336 3.336 1.404.784 3.181 1.176 5.332 1.176 1.094 0 2.178-.091 3.254-.273 1.094-.201 2.762-.711 5.004-1.531v4.266m-18.375-17.09h13.098c0-2.971-.583-5.095-1.75-6.371-1.148-1.276-2.625-1.914-4.43-1.914-2.06 0-3.673.693-4.84 2.078-1.148 1.367-1.841 3.436-2.078 6.207"/></g></svg>