<?xml version="1.0" encoding="utf-8"?>
<!-- Generator: Adobe Illustrator 15.0.2, SVG Export Plug-In . SVG Version: 6.00 Build 0)  -->
<!DOCTYPE svg PUBLIC "-//W3C//DTD SVG 1.1//EN" "http://www.w3.org/Graphics/SVG/1.1/DTD/svg11.dtd">
<svg version="1.1" id="Слой_1" xmlns="http://www.w3.org/2000/svg" xmlns:xlink="http://www.w3.org/1999/xlink" x="0px" y="0px"
	 width="110px" height="110px" viewBox="0 0 110 110" enable-background="new 0 0 110 110" xml:space="preserve">
<line fill="none" stroke="#4D4D4D" stroke-width="4" stroke-miterlimit="10" x1="25.3852539" y1="27.6186523" x2="98.9111328" y2="27.4931641"/>
<circle fill="none" stroke="#333333" stroke-width="4" stroke-miterlimit="10" cx="15.9633789" cy="27.4931641" r="2"/>
<line fill="none" stroke="#4D4D4D" stroke-width="4" stroke-miterlimit="10" x1="25.3852539" y1="38.6186523" x2="98.9111328" y2="38.4931641"/>
<circle fill="none" stroke="#333333" stroke-width="4" stroke-miterlimit="10" cx="15.9633789" cy="38.4931641" r="2"/>
<line fill="none" stroke="#4D4D4D" stroke-width="4" stroke-miterlimit="10" x1="25.3852539" y1="38.6186523" x2="98.9111328" y2="38.4931641"/>
<circle fill="none" stroke="#333333" stroke-width="4" stroke-miterlimit="10" cx="15.9633789" cy="38.4931641" r="2"/>
<line fill="none" stroke="#4D4D4D" stroke-width="4" stroke-miterlimit="10" x1="25.3852539" y1="38.6186523" x2="98.9111328" y2="38.4931641"/>
<circle fill="none" stroke="#333333" stroke-width="4" stroke-miterlimit="10" cx="15.9633789" cy="38.4931641" r="2"/>
<line fill="none" stroke="#4D4D4D" stroke-width="4" stroke-miterlimit="10" x1="25.3852539" y1="38.6186523" x2="98.9111328" y2="38.4931641"/>
<circle fill="none" stroke="#333333" stroke-width="4" stroke-miterlimit="10" cx="15.9633789" cy="38.4931641" r="2"/>
<line fill="none" stroke="#4D4D4D" stroke-width="4" stroke-miterlimit="10" x1="25.3852539" y1="38.6186523" x2="98.9111328" y2="38.4931641"/>
<circle fill="none" stroke="#333333" stroke-width="4" stroke-miterlimit="10" cx="15.9633789" cy="38.4931641" r="2"/>
<line fill="none" stroke="#4D4D4D" stroke-width="4" stroke-miterlimit="10" x1="25.3852539" y1="49.6186523" x2="98.9111328" y2="49.4931641"/>
<circle fill="none" stroke="#333333" stroke-width="4" stroke-miterlimit="10" cx="15.9633789" cy="49.4931641" r="2"/>
<line fill="none" stroke="#4D4D4D" stroke-width="4" stroke-miterlimit="10" x1="25.3852539" y1="60.6191406" x2="98.9111328" y2="60.4931641"/>
<circle fill="none" stroke="#333333" stroke-width="4" stroke-miterlimit="10" cx="15.9633789" cy="60.4931641" r="2"/>
<line fill="none" stroke="#4D4D4D" stroke-width="4" stroke-miterlimit="10" x1="25.3852539" y1="60.6191406" x2="98.9111328" y2="60.4931641"/>
<circle fill="none" stroke="#333333" stroke-width="4" stroke-miterlimit="10" cx="15.9633789" cy="60.4931641" r="2"/>
<line fill="none" stroke="#4D4D4D" stroke-width="4" stroke-miterlimit="10" x1="25.3852539" y1="60.6191406" x2="98.9111328" y2="60.4931641"/>
<circle fill="none" stroke="#333333" stroke-width="4" stroke-miterlimit="10" cx="15.9633789" cy="60.4931641" r="2"/>
<line fill="none" stroke="#4D4D4D" stroke-width="4" stroke-miterlimit="10" x1="25.3852539" y1="60.6191406" x2="98.9111328" y2="60.4931641"/>
<circle fill="none" stroke="#333333" stroke-width="4" stroke-miterlimit="10" cx="15.9633789" cy="60.4931641" r="2"/>
<line fill="none" stroke="#4D4D4D" stroke-width="4" stroke-miterlimit="10" x1="25.3852539" y1="60.6191406" x2="98.9111328" y2="60.4931641"/>
<circle fill="none" stroke="#333333" stroke-width="4" stroke-miterlimit="10" cx="15.9633789" cy="60.4931641" r="2"/>
<line fill="none" stroke="#4D4D4D" stroke-width="4" stroke-miterlimit="10" x1="25.3852539" y1="71.6191406" x2="98.9111328" y2="71.4931641"/>
<circle fill="none" stroke="#333333" stroke-width="4" stroke-miterlimit="10" cx="15.9633789" cy="71.4931641" r="2"/>
<line fill="none" stroke="#4D4D4D" stroke-width="4" stroke-miterlimit="10" x1="25.3852539" y1="82.6191406" x2="98.9111328" y2="82.4931641"/>
<circle fill="none" stroke="#333333" stroke-width="4" stroke-miterlimit="10" cx="15.9633789" cy="82.4931641" r="2"/>
<line fill="none" stroke="#4D4D4D" stroke-width="4" stroke-miterlimit="10" x1="25.3852539" y1="82.6191406" x2="98.9111328" y2="82.4931641"/>
<circle fill="none" stroke="#333333" stroke-width="4" stroke-miterlimit="10" cx="15.9633789" cy="82.4931641" r="2"/>
<line fill="none" stroke="#4D4D4D" stroke-width="4" stroke-miterlimit="10" x1="25.3852539" y1="82.6191406" x2="98.9111328" y2="82.4931641"/>
<circle fill="none" stroke="#333333" stroke-width="4" stroke-miterlimit="10" cx="15.9633789" cy="82.4931641" r="2"/>
<line fill="none" stroke="#4D4D4D" stroke-width="4" stroke-miterlimit="10" x1="25.3852539" y1="82.6191406" x2="98.9111328" y2="82.4931641"/>
<circle fill="none" stroke="#333333" stroke-width="4" stroke-miterlimit="10" cx="15.9633789" cy="82.4931641" r="2"/>
<line fill="none" stroke="#4D4D4D" stroke-width="4" stroke-miterlimit="10" x1="25.3852539" y1="82.6191406" x2="98.9111328" y2="82.4931641"/>
<circle fill="none" stroke="#333333" stroke-width="4" stroke-miterlimit="10" cx="15.9633789" cy="82.4931641" r="2"/>
</svg>
